<?xml version="1.0" standalone="no"?>
<!DOCTYPE svg PUBLIC "-//W3C//DTD SVG 20010904//EN"
 "http://www.w3.org/TR/2001/REC-SVG-20010904/DTD/svg10.dtd">
<svg version="1.0" xmlns="http://www.w3.org/2000/svg"
 width="960.000000pt" height="960.000000pt" viewBox="0 0 960.000000 960.000000"
 preserveAspectRatio="xMidYMid meet">
<metadata>
Created by potrace 1.11, written by Peter Selinger 2001-2013
</metadata>
<g transform="translate(0.000000,960.000000) scale(0.100000,-0.100000)"
fill="#000000" stroke="none">
<path d="M7912 9352 c-32 -5 -38 -26 -37 -121 1 -91 12 -111 60 -105 50 5 53
-12 51 -363 -1 -222 -4 -325 -12 -333 -6 -6 -27 -14 -45 -16 -19 -3 -38 -10
-43 -14 -5 -5 -11 -64 -13 -132 -2 -68 -5 -136 -6 -152 -3 -32 -33 -59 -57
-51 -9 3 -24 -1 -35 -9 -17 -12 -19 -29 -20 -169 0 -86 -3 -158 -6 -161 -3 -3
-23 -8 -45 -12 -51 -7 -54 -11 -59 -70 -2 -27 -4 -49 -5 -49 -1 0 -3 -48 -4
-107 -1 -59 -4 -110 -7 -112 -3 -3 -22 -7 -43 -10 -22 -3 -43 -9 -49 -15 -6
-6 -10 -151 -11 -395 -1 -211 -4 -387 -8 -391 -3 -4 -25 -8 -48 -10 -23 -2
-47 -8 -53 -14 -7 -7 -11 -134 -11 -390 -1 -288 -4 -383 -13 -392 -7 -7 -29
-14 -50 -16 -20 -1 -41 -7 -47 -13 -5 -5 -10 -116 -10 -276 -1 -300 1 -293
-79 -290 l-42 2 -1 92 c-2 137 -1 129 -34 134 -17 3 -40 0 -52 -6 -21 -10 -23
-19 -23 -105 0 -106 8 -119 69 -115 20 2 39 -2 43 -9 4 -7 8 -109 9 -227 1
-245 0 -249 -67 -245 -52 4 -62 14 -64 65 -1 23 -7 46 -12 51 -16 16 -62 18
-75 2 -14 -18 -17 -300 -3 -320 6 -7 28 -16 49 -18 22 -3 42 -8 45 -10 10 -11
5 -95 -6 -106 -6 -6 -26 -13 -43 -14 -40 -3 -50 -14 -55 -55 -6 -43 -17 -53
-61 -57 -21 -1 -39 -5 -42 -8 -7 -7 -8 -193 -1 -199 3 -3 20 -6 38 -8 39 -3
52 -17 57 -63 4 -51 -21 -64 -120 -61 -43 1 -84 -3 -92 -9 -7 -5 -15 -27 -17
-48 -6 -53 -18 -62 -94 -69 -14 -1 -15 -4 -17 -56 -3 -40 -17 -55 -57 -58 -40
-3 -50 -13 -53 -53 -1 -17 -8 -37 -14 -43 -18 -18 -318 -19 -333 -2 -11 13
-16 43 -24 143 -5 64 -10 71 -59 75 -21 2 -40 7 -43 10 -3 3 -7 49 -8 101 -1
53 -6 100 -11 105 -6 6 -27 12 -47 13 -21 2 -43 9 -49 15 -8 8 -13 47 -14 102
-1 98 -10 119 -50 114 -41 -4 -65 27 -59 78 3 23 8 44 10 46 2 2 23 6 46 8 24
2 44 6 46 8 10 9 8 180 -2 199 -7 15 -21 21 -48 23 -21 1 -40 4 -43 6 -2 3 -6
24 -8 46 -4 44 7 54 62 57 31 3 45 18 44 52 0 15 6 37 13 49 12 19 22 20 165
19 166 -1 170 1 174 58 3 61 9 63 172 62 83 0 153 4 160 10 8 6 16 24 18 40 6
49 15 61 44 60 15 -1 38 4 52 11 l25 12 -1 156 c-1 167 4 183 51 181 11 0 27
3 36 7 21 10 30 65 12 79 -7 6 -61 13 -120 15 -132 4 -202 10 -209 17 -3 3 -7
22 -8 42 -2 20 -8 41 -14 47 -8 8 -80 12 -216 12 -140 1 -209 5 -216 12 -7 7
-14 29 -16 50 -2 20 -8 42 -13 47 -6 6 -96 11 -225 11 -118 1 -217 4 -220 7
-3 3 -7 22 -10 43 -6 48 -12 54 -60 60 -21 3 -41 7 -43 9 -2 3 -6 24 -9 48 -7
55 -13 62 -64 64 -22 1 -43 5 -46 8 -4 3 -8 25 -9 47 -3 51 -11 60 -65 65 -24
3 -45 6 -47 9 -2 2 -6 23 -9 47 -3 24 -7 45 -9 48 -2 2 -46 4 -98 5 -107 1
-128 11 -123 58 5 41 -23 69 -61 62 -15 -3 -32 -9 -37 -14 -5 -5 -9 -51 -10
-104 -1 -52 -4 -98 -7 -100 -8 -9 -107 -18 -212 -20 -53 -1 -102 -7 -108 -13
-6 -6 -11 -24 -13 -42 -4 -55 -8 -56 -242 -57 -118 0 -217 -4 -221 -7 -8 -9
-8 -85 0 -94 4 -3 77 -7 163 -7 182 -1 186 -3 178 -90 -3 -28 -6 -94 -7 -147
-3 -119 -9 -129 -80 -123 -67 7 -108 7 -184 1 -73 -5 -84 3 -89 66 -2 23 -6
64 -8 90 -5 57 -14 69 -56 72 -41 4 -52 16 -55 60 -2 19 -8 41 -13 48 -15 18
-80 9 -90 -12 -5 -9 -7 -77 -6 -151 1 -156 -7 -184 -55 -175 -43 7 -53 -12
-55 -120 -1 -52 -5 -97 -8 -100 -3 -4 -28 -9 -54 -11 -27 -3 -51 -8 -53 -10
-2 -2 -4 -48 -5 -103 -1 -112 -7 -124 -62 -127 -55 -4 -61 16 -60 193 1 83 4
154 7 157 3 4 25 9 49 11 24 2 44 6 46 7 1 2 5 35 8 73 3 39 8 80 10 92 6 31
-14 51 -56 56 -45 6 -59 -8 -63 -58 -3 -44 -14 -56 -56 -61 -18 -2 -38 -9 -43
-14 -5 -5 -10 -75 -10 -159 -1 -93 -5 -154 -12 -161 -6 -6 -28 -13 -49 -15
-21 -3 -43 -9 -49 -14 -7 -6 -11 -61 -10 -155 1 -162 0 -166 -63 -173 -65 -7
-60 41 -50 -491 3 -119 0 -177 -8 -188 -6 -9 -32 -18 -58 -21 -26 -3 -47 -11
-48 -17 0 -6 -1 -52 -2 -103 -2 -51 -7 -97 -13 -103 -6 -6 -25 -12 -44 -15
-44 -5 -49 -11 -56 -80 -7 -67 -8 -441 -1 -523 5 -63 13 -73 62 -78 21 -2 40
-6 43 -9 4 -3 7 -53 7 -111 2 -124 -6 -137 -85 -127 -74 9 -130 7 -142 -5 -6
-6 -11 -27 -10 -45 2 -45 -16 -67 -58 -73 -19 -3 -39 -10 -44 -15 -5 -5 -10
-49 -10 -97 -1 -103 -12 -125 -58 -118 -39 6 -66 -21 -63 -62 2 -34 -8 -42
-64 -48 -44 -4 -53 -14 -55 -58 -1 -44 -15 -58 -62 -63 -21 -2 -40 -6 -42 -8
-2 -2 -5 -46 -6 -98 -1 -58 -6 -101 -14 -110 -12 -14 -86 -17 -100 -3 -3 4 -7
50 -7 103 -1 77 -5 98 -18 108 -20 15 -184 12 -200 -4 -5 -5 -11 -29 -13 -51
-1 -23 -5 -44 -8 -47 -3 -3 -24 -7 -46 -8 -22 -1 -46 -7 -52 -13 -7 -7 -12
-64 -12 -161 -1 -82 -4 -153 -8 -157 -4 -3 -23 -7 -43 -8 -42 -1 -64 -24 -58
-59 2 -12 -2 -31 -11 -42 -12 -17 -27 -20 -111 -21 -53 -1 -101 -6 -106 -11
-5 -5 -11 -26 -13 -47 -5 -48 -18 -61 -63 -64 -20 -2 -39 -5 -42 -7 -2 -3 -5
-74 -5 -158 -1 -171 -7 -191 -57 -183 -39 6 -59 -12 -62 -57 -4 -45 -14 -57
-58 -63 -19 -3 -38 -10 -43 -14 -5 -5 -10 -46 -11 -92 -2 -100 -8 -114 -43
-115 -100 -3 -175 -12 -184 -21 -7 -7 -12 -68 -12 -161 -1 -100 -5 -154 -13
-162 -6 -6 -26 -13 -44 -15 -42 -5 -52 -16 -52 -54 0 -38 9 -47 52 -54 18 -2
39 -10 45 -16 6 -6 12 -51 13 -102 1 -68 5 -95 16 -103 19 -14 304 -12 319 3
5 5 10 26 10 46 0 42 16 57 66 63 45 5 51 10 56 48 6 51 14 60 53 61 20 1 41
8 47 16 7 9 11 55 10 108 -1 86 1 93 23 107 12 8 30 13 38 9 22 -8 53 27 50
57 -4 33 17 50 63 53 40 2 63 25 56 57 -6 35 21 65 56 63 43 -3 61 13 63 57 3
46 16 59 62 62 20 2 42 8 48 14 6 6 11 68 11 163 1 152 1 152 26 165 14 7 37
13 53 13 26 0 34 17 28 54 -1 4 5 19 14 32 12 19 22 23 44 19 39 -7 63 14 65
58 1 45 15 58 62 64 21 2 39 5 40 6 1 1 5 22 8 46 7 56 11 60 67 67 24 3 45 7
45 8 1 0 4 17 7 36 8 58 14 65 59 67 50 2 56 8 63 58 2 21 9 43 15 49 6 6 51
11 101 12 49 0 94 5 99 10 6 6 12 25 14 43 5 43 19 55 64 58 71 3 147 14 154
22 5 4 10 21 12 39 5 44 21 60 57 58 42 -3 60 13 62 57 3 46 15 58 63 64 22 3
40 6 41 7 2 1 5 21 7 45 2 23 6 44 9 47 2 2 24 7 47 9 53 6 63 14 65 60 1 45
14 57 67 62 23 3 44 6 45 7 2 1 5 22 7 45 5 51 13 61 57 67 19 3 37 9 41 12 7
7 18 82 23 160 2 24 5 45 7 47 2 3 21 6 42 9 50 6 58 15 60 65 1 43 25 64 65
56 42 -8 54 15 55 113 1 101 8 114 58 118 18 2 37 9 43 17 6 9 10 71 9 158 -1
109 2 148 12 160 11 12 34 15 114 14 55 -1 102 -4 106 -7 3 -3 8 -28 10 -54 3
-27 7 -50 9 -52 1 -2 21 -4 44 -6 23 -2 48 -9 54 -15 7 -7 12 -48 13 -102 1
-50 6 -95 12 -101 6 -6 27 -12 46 -13 45 -2 46 -3 51 -55 6 -53 10 -58 58 -63
48 -5 58 -15 64 -63 3 -22 6 -40 7 -41 1 -1 21 -4 45 -7 54 -6 61 -13 65 -61
4 -40 22 -57 65 -61 33 -4 45 -19 47 -60 3 -45 11 -53 56 -57 46 -4 67 -21 63
-52 -5 -49 14 -58 118 -59 108 -1 119 -7 123 -62 1 -20 7 -41 12 -46 7 -7 90
-11 215 -12 226 -1 242 -5 233 -58 -3 -19 1 -35 12 -46 15 -15 51 -17 340 -16
l324 0 15 -23 c8 -12 13 -29 10 -37 -10 -26 19 -53 57 -51 29 2 36 -1 44 -24
5 -14 10 -37 10 -51 1 -31 26 -50 62 -45 48 6 68 -17 64 -72 -2 -26 -6 -99 -7
-161 -2 -61 -6 -115 -9 -118 -3 -2 -25 -6 -48 -8 -24 -2 -48 -10 -54 -18 -7
-9 -11 -69 -10 -156 1 -159 -4 -176 -57 -178 -39 -2 -58 -24 -51 -59 5 -31 12
-35 58 -39 19 -2 38 -7 42 -10 3 -4 7 -77 8 -162 0 -86 5 -159 11 -165 19 -19
62 -20 81 -1 16 16 18 33 17 101 -2 95 7 113 59 116 20 2 42 7 49 13 9 8 12
63 12 212 -1 138 3 207 11 218 6 8 29 17 50 19 22 1 44 9 49 17 6 8 10 76 9
165 -1 146 0 153 20 166 12 8 31 13 43 11 32 -7 52 14 58 58 6 47 4 46 48 50
24 3 41 -2 49 -11 11 -14 14 -30 22 -146 2 -27 8 -53 15 -60 6 -6 49 -11 105
-12 52 0 98 -4 102 -8 5 -4 9 -51 9 -103 1 -52 6 -99 12 -105 5 -5 27 -12 48
-14 46 -4 53 -11 61 -60 7 -50 15 -58 60 -62 21 -1 40 -5 43 -9 3 -3 7 -49 7
-102 2 -104 12 -125 58 -116 12 2 31 -3 42 -10 18 -13 19 -29 20 -230 1 -119
3 -219 6 -221 3 -3 26 -7 52 -9 27 -3 50 -7 53 -10 3 -2 6 -21 8 -42 5 -46 12
-53 60 -59 21 -3 41 -7 43 -10 2 -2 5 -22 6 -44 2 -50 13 -62 61 -65 53 -3 61
-20 60 -125 0 -98 -4 -93 62 -106 40 -8 51 -22 48 -63 -2 -39 11 -52 60 -56
48 -5 59 -18 62 -67 1 -23 4 -43 6 -45 2 -3 26 -6 52 -9 26 -2 49 -6 52 -9 3
-3 7 -24 8 -47 1 -24 9 -47 17 -53 21 -15 295 -13 310 2 6 6 12 30 13 52 1 22
4 42 6 45 5 4 55 13 84 14 24 1 27 18 28 129 0 40 -4 76 -9 81 -5 5 -29 12
-54 16 -25 4 -46 8 -48 9 -2 3 -8 60 -16 159 -4 48 -13 56 -61 62 -21 3 -41 8
-44 11 -3 3 -6 48 -6 100 -1 52 -6 99 -11 104 -5 5 -27 12 -49 15 -48 6 -57
15 -60 60 -3 46 -13 56 -60 61 -21 2 -40 6 -44 9 -3 4 -6 76 -6 161 -1 89 -5
158 -11 164 -6 6 -27 12 -47 13 -47 4 -59 16 -63 63 -3 45 -11 53 -53 58 -18
2 -38 9 -44 15 -7 7 -12 50 -13 102 -1 50 -6 95 -11 100 -5 5 -29 11 -53 14
-23 2 -45 7 -48 10 -3 2 -7 58 -9 122 -7 206 -4 198 -63 208 -19 3 -39 10 -44
16 -6 5 -11 79 -11 164 -1 104 -5 159 -13 167 -6 6 -28 13 -48 15 -46 3 -46 3
-51 55 -2 24 -8 47 -13 52 -4 4 -51 9 -104 11 -54 1 -99 5 -102 8 -3 2 -6 21
-8 42 -5 47 -14 55 -60 57 -42 1 -68 29 -62 65 6 31 -15 54 -54 57 -55 5 -65
13 -67 57 -1 23 -3 43 -5 44 -2 2 -23 6 -47 9 -24 3 -45 7 -47 9 -2 1 -6 22
-9 45 -6 51 18 82 59 78 14 -2 30 2 35 8 13 15 21 87 10 80 -5 -3 -9 -1 -9 4
0 5 -12 7 -27 5 -54 -8 -67 14 -68 121 -1 54 -7 102 -12 107 -6 6 -30 12 -53
14 -23 2 -45 6 -48 10 -11 10 -6 85 6 97 7 7 29 13 49 14 80 4 146 14 157 23
7 6 11 44 10 98 -1 104 9 123 62 118 53 -4 59 -15 60 -120 1 -108 9 -124 57
-118 17 3 38 5 45 6 13 0 14 8 14 117 0 90 -10 192 -20 202 -7 7 -64 15 -149
22 -64 6 -62 -3 -66 269 -4 195 0 207 63 202 33 -3 40 0 46 18 4 12 8 138 8
279 1 273 3 282 49 284 12 1 31 2 43 3 11 0 21 7 22 14 1 6 3 132 5 279 1 146
5 269 8 273 4 3 26 8 50 11 24 3 45 7 47 9 2 2 5 76 6 164 1 88 4 162 6 165 3
2 25 7 50 11 25 4 50 10 55 15 6 5 10 49 9 99 -1 100 4 111 58 117 44 5 55 19
53 60 -3 44 22 74 59 70 14 -2 30 2 35 8 17 21 24 107 25 322 1 231 4 246 56
239 59 -7 64 6 65 178 0 86 4 159 8 163 4 4 23 8 44 10 20 1 42 9 47 16 7 9
11 75 11 166 -1 166 -3 162 63 167 19 2 39 8 44 13 7 7 11 74 12 166 1 85 4
158 8 161 3 3 23 8 44 11 21 2 42 8 47 13 15 15 18 112 20 565 1 285 -2 434
-8 443 -6 8 -30 16 -54 18 -23 2 -46 6 -49 10 -4 3 -7 49 -7 101 -1 52 -5 98
-11 104 -5 5 -26 11 -47 13 -21 3 -44 10 -50 16 -7 7 -12 48 -12 101 -1 50 -6
95 -12 101 -5 5 -30 12 -54 15 -24 2 -55 5 -69 7 -14 1 -35 1 -48 -1z m-2618
-4083 c4 -3 9 -22 11 -42 7 -52 -11 -61 -116 -62 -49 -1 -94 -6 -99 -11 -6 -6
-12 -30 -15 -54 -2 -23 -6 -44 -7 -45 -2 -2 -19 -6 -39 -9 -45 -7 -74 12 -75
51 -1 15 -2 36 -3 46 0 10 -5 15 -11 12 -5 -3 -10 -3 -10 2 0 4 -41 8 -90 7
-50 0 -94 2 -99 6 -17 10 -21 63 -7 85 13 20 22 20 284 20 149 0 273 -3 276
-6z m-582 -117 c7 -7 13 -30 13 -52 1 -43 -6 -49 -65 -57 -44 -5 -48 -10 -55
-58 -6 -47 -16 -58 -56 -61 -18 -2 -36 -7 -42 -13 -5 -5 -11 -53 -12 -106 -1
-67 -5 -99 -15 -105 -13 -8 -88 -6 -97 4 -3 2 -6 23 -8 46 -3 51 -12 60 -61
66 -21 3 -40 7 -43 10 -3 2 -6 44 -6 92 -3 103 8 126 56 130 42 3 52 13 55 54
2 48 2 48 26 57 37 13 295 8 310 -7z m703 -1285 c7 -9 13 -36 14 -60 1 -23 4
-58 6 -77 2 -19 4 -42 4 -51 1 -12 15 -18 51 -23 37 -5 50 -11 51 -24 1 -9 3
-32 5 -50 3 -43 5 -44 53 -46 44 -1 48 -6 57 -65 7 -44 14 -52 45 -53 13 0 35
-4 49 -9 l25 -9 1 -155 c0 -98 4 -159 11 -166 6 -6 27 -12 47 -13 19 0 40 -6
46 -12 16 -16 20 -52 9 -78 -10 -21 -16 -22 -113 -22 -109 1 -138 11 -131 46
6 29 -19 52 -61 57 -21 2 -168 5 -326 6 -158 1 -290 5 -293 9 -4 4 -9 28 -12
55 -2 26 -6 49 -8 51 -2 2 -46 5 -99 5 -63 1 -99 6 -108 15 -20 20 -19 309 1
325 8 7 50 12 103 13 50 0 93 5 99 11 6 6 12 30 13 52 1 44 9 51 65 56 42 4
52 14 55 54 3 40 16 52 62 57 46 4 53 11 57 56 5 59 15 64 118 64 75 -1 93 -4
104 -19z m1509 -1038 c3 -3 8 -25 11 -50 7 -54 12 -59 59 -63 59 -6 63 -14 61
-121 -1 -52 -4 -98 -8 -101 -4 -4 -25 -8 -47 -9 -51 -2 -58 -9 -65 -64 -3 -25
-7 -46 -9 -49 -3 -2 -20 -5 -40 -7 -49 -5 -53 -9 -60 -60 -4 -25 -13 -45 -19
-46 -7 0 -20 -2 -30 -4 -10 -2 -31 1 -45 6 -22 7 -27 16 -29 46 -3 45 -12 54
-58 58 -20 1 -41 7 -48 14 -8 8 -12 59 -12 163 -1 141 0 151 20 163 11 7 33
13 48 13 37 -1 48 12 50 54 4 58 15 64 121 63 52 0 97 -3 100 -6z"/>
<path d="M7332 8652 c-39 -6 -52 -73 -18 -98 25 -18 69 -3 76 27 13 50 -11 79
-58 71z"/>
<path d="M7193 7945 c-16 -11 -18 -30 -17 -159 0 -80 4 -150 10 -155 21 -20
64 -21 82 -3 15 15 17 35 16 160 0 84 -5 147 -11 153 -16 16 -60 18 -80 4z"/>
<path d="M7066 7358 c-12 -16 -13 -74 -2 -85 8 -8 77 -6 86 3 16 17 19 72 4
85 -23 19 -74 17 -88 -3z"/>
<path d="M6972 7129 c-13 -5 -22 -18 -23 -31 -1 -13 -3 -39 -5 -58 -6 -44 -6
-111 -1 -116 11 -11 89 -9 99 3 11 13 12 61 4 138 -2 22 -5 45 -5 51 -1 15
-42 23 -69 13z"/>
<path d="M6843 6665 c-14 -10 -17 -34 -17 -155 -1 -86 3 -149 10 -158 5 -7 27
-15 48 -16 46 -4 56 -13 62 -62 2 -21 10 -43 18 -49 7 -5 49 -9 92 -8 105 4
104 3 105 27 4 62 2 145 -3 171 l-7 30 -99 0 c-55 0 -103 3 -107 6 -3 4 -8 28
-10 53 -3 54 13 77 50 70 34 -6 64 25 58 60 -4 20 -12 26 -32 27 -14 0 -35 2
-46 4 -63 11 -107 11 -122 0z"/>
<path d="M7071 5961 c-14 -14 -17 -33 -15 -105 1 -48 6 -92 11 -97 14 -14 72
-14 85 -1 11 11 17 196 7 206 -2 2 -19 6 -37 9 -24 4 -39 0 -51 -12z"/>
<path d="M6148 4692 c-19 -4 -19 -4 -21 -122 -2 -59 2 -79 15 -92 17 -17 64
-16 82 3 14 13 12 187 -2 201 -12 12 -44 16 -74 10z"/>
<path d="M7207 3399 c-26 -15 -42 -194 -18 -208 15 -10 71 -5 83 7 14 14 9
166 -6 190 -9 15 -41 20 -59 11z"/>
</g>
</svg>
